<svg width="406" height="100" viewBox="0 0 406 100" fill="none" xmlns="http://www.w3.org/2000/svg">
<path d="M132.768 33.585C134.589 33.585 136.066 35.0615 136.066 36.8828V36.8828C136.066 38.7042 134.589 40.1807 132.768 40.1807H120.298C118.476 40.1807 117 38.7042 117 36.8828V36.8828C117 35.0615 118.476 33.585 120.298 33.585H132.768ZM121.328 30.3902C121.328 27.9656 123.294 26 125.719 26V26C128.143 26 130.109 27.9656 130.109 30.3902V55.5156C130.109 56.3263 130.233 56.9584 130.48 57.4118C130.727 57.8515 131.071 58.1607 131.51 58.3393C131.964 58.518 132.486 58.6073 133.077 58.6073C133.489 58.6073 133.901 58.5729 134.314 58.5042V58.5042C134.84 58.3989 135.35 58.7384 135.461 59.2639L136.247 62.9788C136.471 64.0411 135.847 65.0891 134.788 65.3266V65.3266C133.991 65.519 133.022 65.6358 131.881 65.677C129.765 65.7594 127.91 65.4777 126.316 64.8319C124.736 64.1861 123.506 63.183 122.627 61.8226C121.747 60.4623 121.315 58.7447 121.328 56.6698V30.3902Z" fill="#128ECA"/>
<path d="M146.175 65.2441C143.751 65.2441 141.785 63.2786 141.785 60.8539V37.8413C141.785 35.4906 143.691 33.585 146.041 33.585H147.536C149.061 33.585 150.298 34.8216 150.298 36.3469V38.9203C150.298 39.0244 150.382 39.1089 150.486 39.1089V39.1089C150.57 39.1089 150.644 39.0535 150.668 38.9735C151.25 37.0756 152.205 35.6367 153.534 34.6568C154.894 33.64 156.461 33.1316 158.233 33.1316C158.673 33.1316 159.147 33.159 159.655 33.214V33.214C160.45 33.2999 160.995 34.0014 160.995 34.8006V39.4879C160.995 40.3571 160.146 41.0159 159.284 40.9021V40.9021C158.556 40.8059 157.89 40.7578 157.285 40.7578C155.993 40.7578 154.839 41.0395 153.822 41.6028C152.819 42.1525 152.022 42.922 151.431 43.9113C150.854 44.9007 150.566 46.0412 150.566 47.3328V60.8539C150.566 63.2786 148.6 65.2441 146.175 65.2441V65.2441Z" fill="#128ECA"/>
<path d="M185.837 51.7643V37.9752C185.837 35.5506 187.803 33.585 190.227 33.585V33.585C192.652 33.585 194.617 35.5506 194.617 37.9752V61.0291C194.617 63.357 192.73 65.2441 190.402 65.2441H189.063C187.475 65.2441 186.187 63.9568 186.187 62.3689V59.6891C186.187 59.5811 186.1 59.4936 185.992 59.4936V59.4936C185.911 59.4936 185.839 59.5435 185.808 59.6186C185.089 61.4157 183.917 62.8649 182.292 63.9662C180.643 65.093 178.63 65.6564 176.253 65.6564C174.137 65.6564 172.275 65.1754 170.667 64.2136C169.059 63.2517 167.802 61.8845 166.895 60.1119C166.002 58.3393 165.548 56.2163 165.535 53.743V37.9752C165.535 35.5506 167.5 33.585 169.925 33.585V33.585C172.35 33.585 174.315 35.5506 174.315 37.9752V52.1765C174.329 54.0453 174.83 55.5224 175.82 56.608C176.809 57.6935 178.135 58.2363 179.798 58.2363C180.856 58.2363 181.845 57.9958 182.766 57.5149C183.687 57.0202 184.429 56.2919 184.992 55.3301C185.569 54.3682 185.851 53.1796 185.837 51.7643Z" fill="#128ECA"/>
<path d="M226.532 38.452C227.809 40.4852 225.946 42.7381 223.55 42.8856L222.017 42.9799C220.829 43.053 219.815 42.1705 219.057 41.2525V41.2525C218.604 40.6891 218.006 40.2425 217.264 39.9127C216.536 39.5692 215.663 39.3974 214.647 39.3974C213.286 39.3974 212.139 39.686 211.204 40.2631C210.27 40.8265 209.803 41.5822 209.803 42.5304C209.803 43.2861 210.105 43.9251 210.71 44.4472C211.314 44.9694 212.352 45.3885 213.822 45.7045L219.552 46.8588C222.63 47.4908 224.925 48.5077 226.436 49.9092C227.948 51.3108 228.704 53.1521 228.704 55.4331C228.704 57.508 228.092 59.3287 226.869 60.8951C225.66 62.4616 223.997 63.6845 221.881 64.564C219.779 65.4296 217.354 65.8625 214.605 65.8625C210.414 65.8625 207.075 64.9899 204.588 63.2448C203.501 62.4718 202.612 61.5767 201.92 60.5595C200.459 58.4103 202.472 55.9548 205.067 55.8186L205.298 55.8065C207.354 55.6985 209.062 57.3978 210.772 58.5454V58.5454C211.775 59.205 213.06 59.5348 214.626 59.5348C216.165 59.5348 217.402 59.2394 218.336 58.6485C219.284 58.0439 219.765 57.2675 219.779 56.3194C219.765 55.5224 219.428 54.8697 218.769 54.3613C218.109 53.8392 217.092 53.4407 215.718 53.1659L210.236 52.0734C207.144 51.4551 204.842 50.3833 203.331 48.8581C201.833 47.3328 201.084 45.3885 201.084 43.025C201.084 40.9914 201.634 39.2394 202.733 37.7691C203.846 36.2988 205.406 35.1652 207.412 34.3682C209.432 33.5713 211.795 33.1728 214.502 33.1728C218.501 33.1728 221.648 34.0178 223.942 35.708C225.012 36.4913 225.876 37.406 226.532 38.452Z" fill="#128ECA"/>
<path d="M247.774 33.585C249.596 33.585 251.072 35.0615 251.072 36.8828V36.8828C251.072 38.7042 249.596 40.1807 247.774 40.1807H235.304C233.483 40.1807 232.007 38.7042 232.007 36.8828V36.8828C232.007 35.0615 233.483 33.585 235.304 33.585H247.774ZM236.335 30.3902C236.335 27.9656 238.301 26 240.725 26V26C243.15 26 245.115 27.9656 245.115 30.3902V55.5156C245.115 56.3263 245.239 56.9584 245.486 57.4118C245.734 57.8515 246.077 58.1607 246.517 58.3393C246.97 58.518 247.493 58.6073 248.083 58.6073C248.496 58.6073 248.908 58.5729 249.32 58.5042V58.5042C249.847 58.3989 250.357 58.7384 250.468 59.2639L251.253 62.9788C251.478 64.0411 250.854 65.0891 249.794 65.3266V65.3266C248.997 65.519 248.029 65.6358 246.888 65.677C244.772 65.7594 242.917 65.4777 241.323 64.8319C239.743 64.1861 238.513 63.183 237.633 61.8226C236.754 60.4623 236.321 58.7447 236.335 56.6698V30.3902Z" fill="#128ECA"/>
<path d="M284.385 38.4519C285.662 40.4852 283.799 42.7381 281.403 42.8855L279.87 42.9798C278.682 43.0529 277.668 42.1705 276.911 41.2524V41.2524C276.457 40.689 275.859 40.2424 275.117 39.9127C274.389 39.5691 273.517 39.3974 272.5 39.3974C271.139 39.3974 269.992 39.6859 269.058 40.2631C268.123 40.8264 267.656 41.5822 267.656 42.5303C267.656 43.2861 267.958 43.925 268.563 44.4472C269.168 44.9693 270.205 45.3884 271.675 45.7045L277.405 46.8587C280.483 47.4908 282.778 48.5076 284.29 49.9092C285.801 51.3108 286.557 53.1521 286.557 55.4331C286.557 57.5079 285.945 59.3286 284.722 60.8951C283.513 62.4616 281.851 63.6845 279.734 64.5639C277.632 65.4296 275.207 65.8624 272.459 65.8624C268.268 65.8624 264.929 64.9899 262.441 63.2448C261.354 62.4718 260.465 61.5767 259.773 60.5595C258.312 58.4103 260.325 55.9548 262.92 55.8185L263.151 55.8064C265.207 55.6984 266.915 57.3977 268.625 58.5454V58.5454C269.628 59.205 270.913 59.5347 272.479 59.5347C274.018 59.5347 275.255 59.2393 276.189 58.6484C277.137 58.0438 277.618 57.2675 277.632 56.3194C277.618 55.5224 277.282 54.8697 276.622 54.3613C275.963 53.8391 274.946 53.4406 273.572 53.1658L268.089 52.0734C264.997 51.4551 262.696 50.3833 261.184 48.858C259.686 47.3328 258.937 45.3884 258.937 43.025C258.937 40.9913 259.487 39.2394 260.586 37.7691C261.699 36.2988 263.259 35.1652 265.265 34.3682C267.285 33.5712 269.649 33.1727 272.356 33.1727C276.354 33.1727 279.501 34.0178 281.796 35.7079C282.865 36.4913 283.729 37.4059 284.385 38.4519Z" fill="#53B35F"/>
<path d="M302.971 65.2441C300.232 65.2441 297.832 63.4099 297.113 60.7668L291.166 38.9155C290.435 36.2303 292.457 33.585 295.24 33.585V33.585C297.206 33.585 298.912 34.9422 299.354 36.8581L303.472 54.7147C303.491 54.7974 303.565 54.8559 303.649 54.8559V54.8559C303.734 54.8559 303.807 54.7982 303.827 54.7163L307.883 37.8345C308.482 35.342 310.712 33.585 313.275 33.585V33.585C315.828 33.585 318.051 35.3281 318.66 37.8075L322.786 54.6033C322.804 54.679 322.872 54.7323 322.95 54.7323V54.7323C323.029 54.7323 323.098 54.6776 323.115 54.6005L327.162 36.8587C327.599 34.9435 329.302 33.585 331.266 33.585V33.585C334.04 33.585 336.056 36.2208 335.329 38.8978L329.395 60.7547C328.676 63.4046 326.27 65.2441 323.524 65.2441V65.2441C320.782 65.2441 318.379 63.4096 317.656 60.7646L313.491 45.5223C313.46 45.4108 313.359 45.3335 313.243 45.3335V45.3335C313.128 45.3335 313.026 45.4108 312.996 45.5223L308.828 60.7731C308.107 63.4131 305.708 65.2441 302.971 65.2441V65.2441Z" fill="#53B35F"/>
<path d="M350.483 65.8418C348.463 65.8418 346.663 65.4914 345.083 64.7907C343.503 64.0761 342.252 63.0249 341.332 61.6371C340.425 60.2355 339.971 58.4904 339.971 56.4018C339.971 54.643 340.294 53.1658 340.94 51.9703C341.586 50.7749 342.465 49.813 343.578 49.0847C344.691 48.3565 345.955 47.8068 347.371 47.4358C348.8 47.0648 350.298 46.8037 351.864 46.6526C353.705 46.4602 355.189 46.2816 356.316 46.1167C357.443 45.9381 358.26 45.677 358.769 45.3335C359.277 44.9899 359.532 44.4815 359.532 43.8082V43.6846C359.532 42.3792 359.119 41.3692 358.295 40.6547C357.484 39.9401 356.33 39.5829 354.832 39.5829C353.252 39.5829 351.995 39.9333 351.06 40.6341V40.6341C349.536 41.755 347.85 43.121 345.964 42.9679L345.814 42.9556C343.307 42.7521 341.494 40.2895 342.979 38.2598C343.148 38.028 343.327 37.8026 343.516 37.5836C344.726 36.1683 346.285 35.0827 348.195 34.327C350.119 33.5575 352.345 33.1727 354.873 33.1727C356.632 33.1727 358.315 33.3788 359.923 33.7911C361.545 34.2033 362.98 34.8423 364.231 35.7079C365.495 36.5736 366.491 37.6866 367.22 39.047C367.948 40.3936 368.312 42.0082 368.312 43.8907V61.0806C368.312 63.38 366.448 65.2441 364.148 65.2441H362.18C360.968 65.2441 359.985 64.2613 359.985 63.049V61.0075C359.985 60.9226 359.916 60.8539 359.831 60.8539V60.8539C359.774 60.8539 359.721 60.8861 359.694 60.937C359.191 61.8922 358.525 62.737 357.697 63.4715C356.845 64.2135 355.821 64.7975 354.626 65.2235C353.431 65.6357 352.05 65.8418 350.483 65.8418ZM352.998 59.7821C354.289 59.7821 355.43 59.5279 356.419 59.0195C357.409 58.4973 358.185 57.7965 358.748 56.9171C359.312 56.0377 359.593 55.0414 359.593 53.9284V51.8092C359.593 51.2751 358.969 50.9033 358.46 51.0634V51.0634C357.993 51.2009 357.463 51.3314 356.873 51.4551C356.282 51.565 355.691 51.668 355.1 51.7642C354.509 51.8467 353.973 51.9223 353.492 51.991C352.462 52.1421 351.562 52.3826 350.792 52.7124C350.023 53.0421 349.425 53.4887 348.999 54.0521C348.573 54.6017 348.36 55.2888 348.36 56.1132C348.36 57.3087 348.793 58.2225 349.659 58.8546C350.538 59.4729 351.651 59.7821 352.998 59.7821Z" fill="#53B35F"/>
<path d="M379.514 77.1163C377.09 77.1163 375.124 75.1507 375.124 72.726V37.9134C375.124 35.5228 377.062 33.585 379.452 33.585H381.122C382.59 33.585 383.781 34.7754 383.781 36.2438V38.6647C383.781 38.7962 383.887 38.9027 384.019 38.9027V38.9027C384.112 38.9027 384.197 38.8478 384.237 38.7633C384.618 37.9564 385.153 37.1372 385.842 36.3057C386.584 35.4125 387.546 34.6705 388.728 34.0796C389.923 33.475 391.407 33.1727 393.18 33.1727C395.488 33.1727 397.618 33.7773 399.569 34.9865C401.52 36.182 403.08 37.9889 404.248 40.4073C405.416 42.812 406 45.8281 406 49.4558C406 52.9872 405.43 55.969 404.289 58.4011C403.162 60.8195 401.623 62.6539 399.672 63.9044C397.735 65.141 395.564 65.7594 393.159 65.7594C391.455 65.7594 390.005 65.4777 388.81 64.9143C387.628 64.3509 386.66 63.6433 385.904 62.7913C385.175 61.957 384.613 61.1162 384.216 60.2691C384.189 60.2111 384.131 60.1737 384.067 60.1737V60.1737C383.977 60.1737 383.905 60.2466 383.905 60.3366V72.726C383.905 75.1507 381.939 77.1163 379.514 77.1163V77.1163ZM383.719 49.4145C383.719 51.297 383.98 52.9391 384.502 54.3407C385.024 55.7422 385.78 56.8346 386.769 57.6179C387.759 58.3874 388.961 58.7721 390.376 58.7721C391.806 58.7721 393.015 58.3805 394.004 57.5973C394.993 56.8003 395.742 55.701 396.251 54.2994C396.773 52.8841 397.034 51.2558 397.034 49.4145C397.034 47.587 396.78 45.9793 396.271 44.5915C395.763 43.2036 395.014 42.1181 394.025 41.3349C393.035 40.5516 391.819 40.16 390.376 40.16C388.947 40.16 387.738 40.5379 386.749 41.2936C385.773 42.0494 385.024 43.1212 384.502 44.509C383.98 45.8968 383.719 47.532 383.719 49.4145Z" fill="#53B35F"/>
<circle cx="50" cy="50" r="46.5" fill="#8AD27E" fill-opacity="0.27" stroke="#128ECA" stroke-width="7"/>
<path fill-rule="evenodd" clip-rule="evenodd" d="M50 61.0062C45.441 61.0062 41.7453 64.702 41.7453 69.2609C41.7453 73.8199 45.441 77.5156 50 77.5156C54.5589 77.5156 58.2547 73.8199 58.2547 69.2609C58.2547 64.702 54.5589 61.0062 50 61.0062Z" stroke="#128ECA" stroke-width="7" stroke-linecap="round" stroke-linejoin="round"/>
<path d="M50 22.4842L50 61.0062" stroke="#128ECA" stroke-width="7" stroke-linecap="round" stroke-linejoin="round"/>
<path d="M69.261 49.9999L77.5157 49.9999C77.5157 34.8034 65.1965 22.4842 50 22.4842C34.8035 22.4842 22.4843 34.8034 22.4843 49.9999L30.739 49.9999" stroke="#128ECA" stroke-width="7" stroke-linecap="round" stroke-linejoin="round"/>
</svg>
