<svg id="Layer_1" data-name="Layer 1" xmlns="http://www.w3.org/2000/svg" viewBox="0 0 125.28 116.21"><defs><style>.cls-1{fill:#e2761b;stroke:#e2761b;}.cls-1,.cls-10,.cls-2,.cls-3,.cls-4,.cls-5,.cls-6,.cls-7,.cls-8,.cls-9{stroke-linecap:round;stroke-linejoin:round;}.cls-2{fill:#e4761b;stroke:#e4761b;}.cls-3{fill:#d7c1b3;stroke:#d7c1b3;}.cls-4{fill:#233447;stroke:#233447;}.cls-5{fill:#cd6116;stroke:#cd6116;}.cls-6{fill:#e4751f;stroke:#e4751f;}.cls-7{fill:#f6851b;stroke:#f6851b;}.cls-8{fill:#c0ad9e;stroke:#c0ad9e;}.cls-9{fill:#161616;stroke:#161616;}.cls-10{fill:#763d16;stroke:#763d16;}</style></defs><polygon class="cls-1" points="118.59 0.5 70.09 36.52 79.06 15.27 118.59 0.5"/><polygon class="cls-2" points="6.64 0.5 54.74 36.86 46.22 15.27 6.64 0.5"/><polygon class="cls-2" points="101.14 83.98 88.22 103.77 115.86 111.38 123.8 84.42 101.14 83.98"/><polygon class="cls-2" points="1.52 84.42 9.42 111.38 37.05 103.77 24.14 83.98 1.52 84.42"/><polygon class="cls-2" points="35.49 50.55 27.79 62.2 55.23 63.42 54.26 33.93 35.49 50.55"/><polygon class="cls-2" points="89.74 50.55 70.73 33.59 70.09 63.42 97.48 62.2 89.74 50.55"/><polygon class="cls-2" points="37.05 103.77 53.52 95.73 39.29 84.62 37.05 103.77"/><polygon class="cls-2" points="71.7 95.73 88.22 103.77 85.94 84.62 71.7 95.73"/><polygon class="cls-3" points="88.22 103.77 71.7 95.73 73.02 106.5 72.87 111.03 88.22 103.77"/><polygon class="cls-3" points="37.05 103.77 52.4 111.03 52.31 106.5 53.52 95.73 37.05 103.77"/><polygon class="cls-4" points="52.65 77.5 38.9 73.46 48.6 69.02 52.65 77.5"/><polygon class="cls-4" points="72.58 77.5 76.63 69.02 86.37 73.46 72.58 77.5"/><polygon class="cls-5" points="37.05 103.77 39.39 83.98 24.14 84.42 37.05 103.77"/><polygon class="cls-5" points="85.89 83.98 88.22 103.77 101.14 84.42 85.89 83.98"/><polygon class="cls-5" points="97.48 62.2 70.09 63.42 72.63 77.5 76.67 69.02 86.42 73.46 97.48 62.2"/><polygon class="cls-5" points="38.9 73.46 48.65 69.02 52.65 77.5 55.23 63.42 27.79 62.2 38.9 73.46"/><polygon class="cls-6" points="27.79 62.2 39.29 84.62 38.9 73.46 27.79 62.2"/><polygon class="cls-6" points="86.42 73.46 85.94 84.62 97.48 62.2 86.42 73.46"/><polygon class="cls-6" points="55.23 63.42 52.65 77.5 55.86 94.12 56.59 72.24 55.23 63.42"/><polygon class="cls-6" points="70.09 63.42 68.78 72.19 69.36 94.12 72.63 77.5 70.09 63.42"/><polygon class="cls-7" points="72.63 77.5 69.36 94.12 71.7 95.73 85.94 84.62 86.42 73.46 72.63 77.5"/><polygon class="cls-7" points="38.9 73.46 39.29 84.62 53.52 95.73 55.86 94.12 52.65 77.5 38.9 73.46"/><polygon class="cls-8" points="72.87 111.03 73.02 106.5 71.8 105.43 53.43 105.43 52.31 106.5 52.4 111.03 37.05 103.77 42.41 108.16 53.28 115.71 71.95 115.71 82.86 108.16 88.22 103.77 72.87 111.03"/><polygon class="cls-9" points="71.7 95.73 69.36 94.12 55.86 94.12 53.52 95.73 52.31 106.5 53.43 105.43 71.8 105.43 73.02 106.5 71.7 95.73"/><polygon class="cls-10" points="120.64 38.85 124.78 18.97 118.59 0.5 71.7 35.3 89.74 50.55 115.22 58.01 120.88 51.43 118.44 49.67 122.34 46.12 119.32 43.78 123.22 40.8 120.64 38.85"/><polygon class="cls-10" points="0.5 18.97 4.64 38.85 2.01 40.8 5.91 43.78 2.94 46.12 6.84 49.67 4.4 51.43 10 58.01 35.49 50.55 53.52 35.3 6.64 0.5 0.5 18.97"/><polygon class="cls-7" points="115.22 58.01 89.74 50.55 97.48 62.2 85.94 84.62 101.14 84.42 123.8 84.42 115.22 58.01"/><polygon class="cls-7" points="35.49 50.55 10 58.01 1.52 84.42 24.14 84.42 39.29 84.62 27.79 62.2 35.49 50.55"/><polygon class="cls-7" points="70.09 63.42 71.7 35.3 79.11 15.27 46.22 15.27 53.52 35.3 55.23 63.42 55.82 72.29 55.86 94.12 69.36 94.12 69.46 72.29 70.09 63.42"/></svg>